<svg width="735" height="582" viewBox="0 0 735 582" fill="none" xmlns="http://www.w3.org/2000/svg">
<path d="M22.58 130.665H712.337M127.959 568.637H606.957C670.449 568.637 721.917 517.17 721.917 453.678V127.959C721.917 64.4693 670.449 13 606.957 13H127.959C64.4693 13 13 64.4693 13 127.959V453.678C13 517.17 64.4693 568.637 127.959 568.637Z" stroke="black" stroke-width="25" stroke-linecap="square" stroke-linejoin="round"/>
<path d="M391.251 561.998V370.498C391.251 335.244 419.829 306.665 455.085 306.665H534.876C570.131 306.665 598.71 335.244 598.71 370.498V561.998M391.251 434.331H471.043M135.918 561.998V434.534C135.918 418.689 139.85 403.091 147.363 389.139L184.206 320.716C188.866 312.061 197.901 306.665 207.73 306.665C217.56 306.665 226.595 312.061 231.255 320.716L268.098 389.139C275.611 403.091 279.543 418.689 279.543 434.534V561.998" stroke="black" stroke-width="25" stroke-linecap="round" stroke-linejoin="round"/>
<circle cx="118" cy="75" r="15" fill="black"/>
<circle cx="163" cy="75" r="15" fill="black"/>
<circle cx="208" cy="75" r="15" fill="black"/>
<line x1="400.418" y1="496.165" x2="463.418" y2="496.165" stroke="black" stroke-width="25" stroke-linecap="round"/>
<line x1="149.418" y1="410.165" x2="266.418" y2="410.165" stroke="black" stroke-width="25" stroke-linecap="round"/>
</svg>
